<?xml version="1.0" encoding="UTF-8"?>
<svg id="_レイヤー_1" data-name="レイヤー 1" xmlns="http://www.w3.org/2000/svg" viewBox="0 0 129.85 157.16">
  <g>
    <polygon points="45.61 122.31 84.69 122.31 65.15 156.16 45.61 122.31"/>
    <path d="M83.83,122.81l-18.67,32.35-18.67-32.35h37.35M85.56,121.81h-40.81l20.41,35.35,20.41-35.35h0Z"/>
  </g>
  <g>
    <polygon points="45.61 121.39 65.15 87.54 84.69 121.39 45.61 121.39"/>
    <path d="M65.15,88.54l18.67,32.35h-37.35l18.67-32.35M65.15,86.54l-20.41,35.35h40.81l-20.41-35.35h0Z"/>
  </g>
  <g>
    <polygon points="45.61 35.77 84.69 35.77 65.15 69.61 45.61 35.77"/>
    <path d="M83.83,36.27l-18.67,32.35-18.67-32.35h37.35M85.56,35.27h-40.81l20.41,35.35,20.41-35.35h0Z"/>
  </g>
  <g>
    <polygon points="45.61 34.85 65.15 1 84.69 34.85 45.61 34.85"/>
    <path d="M65.15,2l18.67,32.35h-37.35L65.15,2M65.15,0l-20.41,35.35h40.81L65.15,0h0Z"/>
  </g>
  <g>
    <polygon points="20.87 79.13 59.95 79.13 40.41 112.98 20.87 79.13"/>
    <path d="M59.08,79.63l-18.67,32.35-18.67-32.35h37.35M60.81,78.63H20l20.41,35.35,20.41-35.35h0Z"/>
  </g>
  <g>
    <polygon points="69.87 79.13 108.95 79.13 89.41 112.98 69.87 79.13"/>
    <path d="M108.08,79.63l-18.67,32.35-18.67-32.35h37.35M109.81,78.63h-40.81l20.41,35.35,20.41-35.35h0Z"/>
  </g>
  <g>
    <polygon points="20.87 78.48 40.41 44.63 59.95 78.48 20.87 78.48"/>
    <path d="M40.41,45.63l18.67,32.35H21.73l18.67-32.35M40.41,43.63l-20.41,35.35h40.81l-20.41-35.35h0Z"/>
  </g>
  <g>
    <polygon points="69.87 78.48 89.41 44.63 108.95 78.48 69.87 78.48"/>
    <path d="M89.41,45.63l18.67,32.35h-37.35l18.67-32.35M89.41,43.63l-20.41,35.35h40.81l-20.41-35.35h0Z"/>
  </g>
  <g>
    <polygon points=".87 44.13 39.95 44.13 20.41 77.98 .87 44.13"/>
    <path d="M39.08,44.63l-18.67,32.35L1.73,44.63h37.35M40.81,43.63H0l20.41,35.35,20.41-35.35h0Z"/>
  </g>
  <g>
    <polygon points=".9 113.45 20.44 79.6 39.98 113.45 .9 113.45"/>
    <path d="M20.44,80.6l18.67,32.35H1.77l18.67-32.35M20.44,78.6L.03,113.95h40.81l-20.41-35.35h0Z"/>
  </g>
  <g>
    <polygon points="89.9 44.1 128.98 44.1 109.44 77.95 89.9 44.1"/>
    <path d="M128.12,44.6l-18.67,32.35-18.67-32.35h37.35M129.85,43.6h-40.81l20.41,35.35,20.41-35.35h0Z"/>
  </g>
  <g>
    <polygon points="89.9 113.45 109.44 79.6 128.98 113.45 89.9 113.45"/>
    <path d="M109.44,80.6l18.67,32.35h-37.35l18.67-32.35M109.44,78.6l-20.41,35.35h40.81l-20.41-35.35h0Z"/>
  </g>
</svg>